<svg width="99" height="55" viewBox="0 0 99 55" fill="#1F1E1E" xmlns="http://www.w3.org/2000/svg">
<path d="M9.12 4.67035H22.45L22.05 2.11035H0V40.2904H9.12V14.1904H18.01L18.41 11.6304H9.12V4.67035Z" fill="current"/>
<path d="M83.5098 37.0399C82.4098 37.0399 81.5498 36.7699 80.8898 36.0099C80.3298 35.3699 79.9798 34.2599 79.9798 32.8199V13.3899H84.3698L84.7698 11.6199H79.9798V3.12988H79.1798C77.8098 6.97988 74.0698 10.7999 69.2598 12.5899V13.3899H71.2498V33.6799C71.2498 35.9999 71.8698 37.7699 73.0998 39.0099C74.3298 40.2499 76.1698 40.8599 78.5998 40.8599C80.3098 40.8599 81.8598 40.4799 83.2398 39.7199C84.6298 38.9599 85.6598 37.8999 86.3498 36.5299L85.8898 36.0699C85.1298 36.5999 84.4498 37.0399 83.4998 37.0399H83.5098Z" fill="current"/>
<path d="M36.2411 10.3704C34.7211 10.3704 33.2611 11.1204 32.0811 12.7304C31.2511 13.8704 30.6011 15.3004 30.0911 17.0204V10.3704H29.2911C27.0311 11.0704 23.9911 11.6204 21.3711 11.6204V40.2803H30.0911V19.5904C30.6211 17.8804 31.1911 16.6604 31.8011 15.9404C32.4111 15.2204 33.0711 14.8604 34.0211 14.8604C34.7311 14.8604 35.3311 15.0404 36.0011 15.5404C36.6111 15.9904 37.1411 16.6504 37.4911 17.4304L39.6611 11.5904C38.7611 10.7804 37.6311 10.3604 36.2411 10.3604V10.3704Z" fill="current"/>
<path d="M93.5698 8.43C94.8998 8.43 95.9898 8.01 96.8498 7.18C97.6998 6.34 98.1298 5.36 98.1298 4.22C98.1298 3.08 97.6998 2.05 96.8498 1.23C95.9998 0.41 94.8998 0 93.5698 0C92.2398 0 91.1498 0.41 90.2898 1.23C89.4398 2.05 89.0098 3.04 89.0098 4.22C89.0098 5.4 89.4398 6.35 90.2898 7.18C91.1398 8.02 92.2398 8.43 93.5698 8.43Z" fill="current"/>
<path d="M97.4493 10.9404C95.1893 11.6404 92.1493 12.1904 89.5293 12.1904V40.2804H98.2493V10.9404H97.4493Z" fill="current"/>
<path d="M57.9104 12.2501C56.5604 10.8401 54.2404 10.0801 51.8704 10.0801C49.3604 10.0801 47.0504 10.7601 45.0604 12.1301C43.0704 13.5001 41.5004 15.3601 40.3604 17.7101C39.2204 20.0701 38.6504 22.7101 38.6504 25.6301C38.6504 28.5501 39.1404 31.2201 40.1304 33.5201C41.1204 35.8201 42.4904 37.6101 44.2604 38.9101C46.0304 40.2001 48.0704 40.8501 50.3904 40.8501C52.1804 40.8501 53.8304 40.3201 55.2304 39.2501C56.3404 38.4101 57.1904 37.4201 57.7804 36.2401L58.0204 40.2701H66.1704V10.3701H58.0204L57.9104 12.2501ZM54.5504 36.6401C53.2404 36.6401 51.6604 35.9701 50.5604 34.9301C49.6904 34.1101 48.8104 32.8501 48.0504 31.0001C47.3504 29.3001 46.8904 27.0301 46.8904 24.5001C46.8904 22.3701 47.0204 20.4301 47.4304 18.3501C47.9104 15.8901 48.4904 14.4701 49.4204 13.2201C50.2404 12.1301 51.2804 11.6801 52.5504 11.6801C54.2504 11.6801 55.3404 12.7001 56.3704 14.5901C57.3604 16.4101 57.7404 19.3901 57.7404 22.5301V34.8801C56.6504 36.0801 55.9404 36.6501 54.5504 36.6501V36.6401Z" fill="current"/>
<path d="M62.8202 48.0398C62.3802 47.7398 61.8502 47.5898 61.2502 47.5898C60.7002 47.5898 60.2202 47.6898 59.8002 47.8998C59.3802 48.1098 59.0602 48.3998 58.8302 48.7598C58.6002 49.1298 58.4902 49.5598 58.4902 50.0598C58.4902 50.7298 58.6902 51.2598 59.0802 51.6498C59.4702 52.0398 60.0102 52.2298 60.6902 52.2298C61.0602 52.2298 61.4002 52.1398 61.7202 51.9698C61.9902 51.8198 62.2102 51.6298 62.3802 51.3998C62.3802 52.1398 62.3202 52.7498 62.2302 53.2198C62.1302 53.7398 61.9702 54.1298 61.7502 54.3698C61.5402 54.6098 61.2602 54.7398 60.9202 54.7398C60.6302 54.7398 60.3902 54.6598 60.2202 54.5098C60.0402 54.3598 59.9102 54.1098 59.8302 53.7598C59.7902 53.5698 59.7302 53.4298 59.6502 53.3498C59.5702 53.2698 59.4602 53.2298 59.3302 53.2298C59.2002 53.2298 59.0802 53.2698 59.0002 53.3598C58.9102 53.4498 58.8702 53.5598 58.8702 53.6998C58.8702 53.9398 58.9602 54.1598 59.1402 54.3498C59.3202 54.5398 59.5702 54.6998 59.8802 54.8098C60.1902 54.9198 60.5402 54.9798 60.9302 54.9798C61.6002 54.9798 62.1702 54.8198 62.6602 54.5098C63.1502 54.1998 63.5302 53.7498 63.8002 53.1898C64.0702 52.6198 64.2102 51.9598 64.2102 51.1898C64.2102 50.4198 64.0902 49.8098 63.8502 49.2698C63.6102 48.7298 63.2702 48.3098 62.8202 48.0098V48.0398ZM62.0102 51.4598C61.8302 51.5398 61.6502 51.5698 61.4602 51.5698C61.0702 51.5698 60.7702 51.3998 60.5602 51.0698C60.3502 50.7398 60.2402 50.2498 60.2402 49.6198C60.2402 49.0298 60.3302 48.5798 60.5002 48.2698C60.6702 47.9698 60.9202 47.8098 61.2402 47.8098C61.5202 47.8098 61.7402 47.9198 61.9002 48.1398C62.0602 48.3598 62.1802 48.7098 62.2602 49.2098C62.3402 49.6998 62.3802 50.3698 62.3802 51.2098C62.3802 51.2098 62.3802 51.2098 62.3802 51.2198C62.2702 51.3198 62.1502 51.3998 62.0102 51.4598Z" fill="current"/>
<path d="M56.9809 47.9796C56.7709 48.1096 56.5109 48.2096 56.2109 48.2896C55.9109 48.3696 55.5809 48.4196 55.2109 48.4496V48.5596C55.4609 48.6196 55.6409 48.7196 55.7409 48.8696C55.8409 49.0196 55.8909 49.2496 55.8909 49.5596V54.8996H57.5509V47.5996H57.4109C57.3309 47.7396 57.1909 47.8696 56.9809 47.9896V47.9796Z" fill="current"/>
<path d="M69.3394 47.5996H69.0894L64.6094 53.0096V53.1196H67.6694V54.8896H69.3294V53.1196H70.3794L70.4394 52.3296H69.3194V47.6096L69.3394 47.5996ZM65.6194 52.3296L67.6794 49.8296V52.3296H65.6194Z" fill="current"/>
<path d="M70.7901 47.7002L70.5801 50.0502H70.7101C70.8101 49.7202 70.9501 49.4902 71.1301 49.3602C71.3101 49.2302 71.5901 49.1602 71.9501 49.1602H74.9901C74.8901 49.4102 74.7701 49.6302 74.6101 49.8102C74.4201 50.0302 74.2101 50.2302 73.9801 50.4102C73.7401 50.5902 73.5001 50.7702 73.2601 50.9502C73.0201 51.1302 72.7901 51.3402 72.5701 51.5802C72.3601 51.8202 72.1701 52.1002 72.0301 52.4302C71.8801 52.7602 71.7701 53.2202 71.7701 53.7602V54.9002H73.4601V53.4402C73.4601 53.0102 73.5001 52.6402 73.6001 52.3302C73.7001 52.0202 73.8301 51.7402 73.9901 51.5002C74.1501 51.2602 74.3101 51.0202 74.4901 50.7802C74.6701 50.5402 74.8301 50.2902 74.9701 50.0102C75.1201 49.7302 75.2301 49.4102 75.3001 49.0402L75.5601 47.7102H70.8001L70.7901 47.7002Z" fill="current"/>
<path d="M27.1892 48.2202C26.6492 47.8702 25.8192 47.7002 24.6992 47.7002H22.6992V54.8902H24.4192V51.7702H24.6992C25.8092 51.7702 26.6392 51.5902 27.1792 51.2302C27.7192 50.8702 27.9992 50.3702 27.9992 49.7202C27.9992 49.0702 27.7292 48.5702 27.1892 48.2202ZM25.8792 51.0502C25.6292 51.3602 25.2292 51.5202 24.6892 51.5202H24.4092V47.9602H24.6892C25.2292 47.9602 25.6292 48.1102 25.8792 48.4102C26.1292 48.7102 26.2592 49.1502 26.2592 49.7302C26.2592 50.3102 26.1292 50.7602 25.8792 51.0702V51.0502Z" fill="current"/>
<path d="M42.9301 50.79C42.9301 50.3 42.8001 49.91 42.5501 49.63C42.3001 49.35 41.9501 49.21 41.5001 49.21C41.1301 49.21 40.8001 49.31 40.5101 49.52C40.2201 49.72 39.9901 50.01 39.8301 50.38L39.8601 50.44C39.9701 50.32 40.0801 50.22 40.2101 50.16C40.3401 50.09 40.4601 50.06 40.5901 50.06C40.8301 50.06 41.0101 50.14 41.1201 50.31C41.2301 50.47 41.2901 50.73 41.2901 51.08V54.9H42.9301V50.8V50.79Z" fill="current"/>
<path d="M45.9903 50.7902C45.9903 50.2902 45.8603 49.9002 45.6103 49.6202C45.3603 49.3402 45.0003 49.2002 44.5303 49.2002C44.1703 49.2002 43.8503 49.3002 43.5603 49.5002C43.2703 49.7002 43.0303 50.0002 42.8203 50.4102L42.8703 50.5002C42.9603 50.3602 43.0803 50.2602 43.2103 50.1802C43.3403 50.1002 43.4803 50.0602 43.6203 50.0602C43.8603 50.0602 44.0403 50.1402 44.1603 50.3102C44.2803 50.4702 44.3403 50.7302 44.3403 51.0802V54.9002H45.9803V50.8002L45.9903 50.7902Z" fill="current"/>
<path d="M39.89 50.83V49.25H39.74C39.31 49.38 38.74 49.49 38.25 49.49V54.89H39.89V50.83Z" fill="current"/>
<path d="M31.7394 49.6102C31.4894 49.3402 31.0494 49.2002 30.5994 49.2002C30.1294 49.2002 29.6894 49.3302 29.3194 49.5902C28.9494 49.8502 28.6494 50.2002 28.4294 50.6402C28.2194 51.0802 28.1094 51.5802 28.1094 52.1302C28.1094 52.6802 28.1994 53.1802 28.3894 53.6202C28.5794 54.0502 28.8394 54.3902 29.1694 54.6302C29.4994 54.8702 29.8894 55.0002 30.3194 55.0002C30.6594 55.0002 30.9694 54.9002 31.2294 54.7002C31.4394 54.5402 31.5994 54.3602 31.7094 54.1302L31.7594 54.8902H33.2994V49.2502H31.7594L31.7394 49.6002V49.6102ZM31.0994 54.2102C30.8494 54.2102 30.5594 54.0802 30.3494 53.8902C30.1894 53.7402 30.0194 53.5002 29.8794 53.1502C29.7494 52.8302 29.6594 52.4002 29.6594 51.9302C29.6594 51.5302 29.6794 51.1602 29.7594 50.7702C29.8494 50.3102 29.9594 50.0402 30.1394 49.8002C30.2894 49.5902 30.4894 49.5102 30.7294 49.5102C31.0494 49.5102 31.2594 49.7002 31.4494 50.0602C31.6394 50.4002 31.7094 50.9702 31.7094 51.5602V53.8902C31.4994 54.1202 31.3694 54.2202 31.1094 54.2202L31.0994 54.2102Z" fill="current"/>
<path d="M50.2804 49.6102C50.0304 49.3402 49.5904 49.2002 49.1404 49.2002C48.6704 49.2002 48.2304 49.3302 47.8604 49.5902C47.4904 49.8502 47.1904 50.2002 46.9704 50.6402C46.7604 51.0802 46.6504 51.5802 46.6504 52.1302C46.6504 52.6802 46.7404 53.1802 46.9304 53.6202C47.1204 54.0502 47.3804 54.3902 47.7104 54.6302C48.0404 54.8702 48.4304 55.0002 48.8604 55.0002C49.2004 55.0002 49.5104 54.9002 49.7704 54.7002C49.9804 54.5402 50.1404 54.3602 50.2504 54.1302L50.3004 54.8902H51.8404V49.2502H50.3004L50.2804 49.6002V49.6102ZM49.6504 54.2102C49.4004 54.2102 49.1104 54.0802 48.9004 53.8902C48.7404 53.7402 48.5704 53.5002 48.4304 53.1502C48.3004 52.8302 48.2104 52.4002 48.2104 51.9302C48.2104 51.5302 48.2304 51.1602 48.3104 50.7702C48.4004 50.3102 48.5104 50.0402 48.6904 49.8002C48.8404 49.5902 49.0404 49.5102 49.2804 49.5102C49.6004 49.5102 49.8104 49.7002 50.0004 50.0602C50.1904 50.4002 50.2604 50.9702 50.2604 51.5602V53.8902C50.0504 54.1202 49.9204 54.2202 49.6604 54.2202L49.6504 54.2102Z" fill="current"/>
<path d="M37.05 49.2598C36.76 49.2598 36.49 49.3998 36.27 49.7098C36.11 49.9198 35.99 50.1898 35.89 50.5198V49.2698H35.74C35.31 49.3998 34.74 49.5098 34.25 49.5098V54.9098H35.89V51.0098C35.99 50.6898 36.1 50.4598 36.21 50.3198C36.32 50.1798 36.45 50.1198 36.63 50.1198C36.76 50.1198 36.88 50.1498 37 50.2498C37.12 50.3398 37.22 50.4598 37.28 50.6098L37.69 49.5098C37.52 49.3598 37.31 49.2798 37.05 49.2798V49.2598Z" fill="current"/>
</svg>
